<mxfile host="app.diagrams.net" modified="2022-10-27T22:27:19.830Z" agent="5.0 (Macintosh; Intel Mac OS X 10_15_7) AppleWebKit/537.36 (KHTML, like Gecko) Chrome/106.0.0.0 Safari/537.36" etag="HIBMr8XhHMzEJU63AuRG" version="20.5.1" type="github">
  <diagram id="C5RBs43oDa-KdzZeNtuy" name="Page-1">
    <mxGraphModel dx="2404" dy="1023" grid="1" gridSize="10" guides="1" tooltips="1" connect="1" arrows="1" fold="1" page="1" pageScale="1" pageWidth="827" pageHeight="1169" math="0" shadow="0">
      <root>
        <mxCell id="WIyWlLk6GJQsqaUBKTNV-0" />
        <mxCell id="WIyWlLk6GJQsqaUBKTNV-1" parent="WIyWlLk6GJQsqaUBKTNV-0" />
        <mxCell id="WIyWlLk6GJQsqaUBKTNV-2" value="" style="rounded=0;html=1;jettySize=auto;orthogonalLoop=1;fontSize=11;endArrow=block;endFill=0;endSize=8;strokeWidth=1;shadow=0;labelBackgroundColor=none;edgeStyle=orthogonalEdgeStyle;" parent="WIyWlLk6GJQsqaUBKTNV-1" source="WIyWlLk6GJQsqaUBKTNV-3" target="WIyWlLk6GJQsqaUBKTNV-6" edge="1">
          <mxGeometry relative="1" as="geometry" />
        </mxCell>
        <mxCell id="WIyWlLk6GJQsqaUBKTNV-3" value="Pricing page: Android/ Desktop/ Web" style="rounded=1;whiteSpace=wrap;html=1;fontSize=12;glass=0;strokeWidth=1;shadow=0;" parent="WIyWlLk6GJQsqaUBKTNV-1" vertex="1">
          <mxGeometry x="340" y="50" width="120" height="40" as="geometry" />
        </mxCell>
        <mxCell id="WIyWlLk6GJQsqaUBKTNV-4" value="Yes" style="rounded=0;html=1;jettySize=auto;orthogonalLoop=1;fontSize=11;endArrow=block;endFill=0;endSize=8;strokeWidth=1;shadow=0;labelBackgroundColor=none;edgeStyle=orthogonalEdgeStyle;" parent="WIyWlLk6GJQsqaUBKTNV-1" source="WIyWlLk6GJQsqaUBKTNV-6" target="WIyWlLk6GJQsqaUBKTNV-10" edge="1">
          <mxGeometry y="20" relative="1" as="geometry">
            <mxPoint as="offset" />
          </mxGeometry>
        </mxCell>
        <mxCell id="WIyWlLk6GJQsqaUBKTNV-5" value="No" style="edgeStyle=orthogonalEdgeStyle;rounded=0;html=1;jettySize=auto;orthogonalLoop=1;fontSize=11;endArrow=block;endFill=0;endSize=8;strokeWidth=1;shadow=0;labelBackgroundColor=none;" parent="WIyWlLk6GJQsqaUBKTNV-1" source="WIyWlLk6GJQsqaUBKTNV-6" edge="1">
          <mxGeometry y="10" relative="1" as="geometry">
            <mxPoint as="offset" />
            <mxPoint x="600" y="230" as="targetPoint" />
          </mxGeometry>
        </mxCell>
        <mxCell id="WIyWlLk6GJQsqaUBKTNV-6" value="Is Paid User" style="rhombus;whiteSpace=wrap;html=1;shadow=0;fontFamily=Helvetica;fontSize=12;align=center;strokeWidth=1;spacing=6;spacingTop=-4;" parent="WIyWlLk6GJQsqaUBKTNV-1" vertex="1">
          <mxGeometry x="350" y="120" width="100" height="80" as="geometry" />
        </mxCell>
        <mxCell id="WIyWlLk6GJQsqaUBKTNV-8" value="" style="rounded=0;html=1;jettySize=auto;orthogonalLoop=1;fontSize=11;endArrow=block;endFill=0;endSize=8;strokeWidth=1;shadow=0;labelBackgroundColor=none;edgeStyle=orthogonalEdgeStyle;" parent="WIyWlLk6GJQsqaUBKTNV-1" source="WIyWlLk6GJQsqaUBKTNV-10" target="rVWwEnePYkKhTXY_iFtp-2" edge="1">
          <mxGeometry x="0.3333" y="20" relative="1" as="geometry">
            <mxPoint as="offset" />
            <mxPoint x="-20" y="490" as="targetPoint" />
          </mxGeometry>
        </mxCell>
        <mxCell id="WIyWlLk6GJQsqaUBKTNV-9" value="" style="edgeStyle=orthogonalEdgeStyle;rounded=0;html=1;jettySize=auto;orthogonalLoop=1;fontSize=11;endArrow=block;endFill=0;endSize=8;strokeWidth=1;shadow=0;labelBackgroundColor=none;" parent="WIyWlLk6GJQsqaUBKTNV-1" source="WIyWlLk6GJQsqaUBKTNV-10" edge="1">
          <mxGeometry y="10" relative="1" as="geometry">
            <mxPoint as="offset" />
            <mxPoint x="340" y="470" as="targetPoint" />
            <Array as="points">
              <mxPoint x="340" y="385" />
            </Array>
          </mxGeometry>
        </mxCell>
        <mxCell id="WIyWlLk6GJQsqaUBKTNV-10" value="Extend/Upgrade/Attach" style="rhombus;whiteSpace=wrap;html=1;shadow=0;fontFamily=Helvetica;fontSize=12;align=center;strokeWidth=1;spacing=6;spacingTop=-4;" parent="WIyWlLk6GJQsqaUBKTNV-1" vertex="1">
          <mxGeometry x="70" y="320" width="160" height="130" as="geometry" />
        </mxCell>
        <mxCell id="rVWwEnePYkKhTXY_iFtp-29" style="edgeStyle=orthogonalEdgeStyle;rounded=0;orthogonalLoop=1;jettySize=auto;html=1;exitX=1;exitY=0.5;exitDx=0;exitDy=0;" edge="1" parent="WIyWlLk6GJQsqaUBKTNV-1" source="rVWwEnePYkKhTXY_iFtp-2">
          <mxGeometry relative="1" as="geometry">
            <mxPoint x="75" y="600" as="targetPoint" />
          </mxGeometry>
        </mxCell>
        <mxCell id="rVWwEnePYkKhTXY_iFtp-34" style="edgeStyle=orthogonalEdgeStyle;rounded=0;orthogonalLoop=1;jettySize=auto;html=1;exitX=0;exitY=0.5;exitDx=0;exitDy=0;" edge="1" parent="WIyWlLk6GJQsqaUBKTNV-1" source="rVWwEnePYkKhTXY_iFtp-2">
          <mxGeometry relative="1" as="geometry">
            <mxPoint x="-230" y="600" as="targetPoint" />
          </mxGeometry>
        </mxCell>
        <mxCell id="rVWwEnePYkKhTXY_iFtp-2" value="Extend/ Upgrade" style="rhombus;whiteSpace=wrap;html=1;" vertex="1" parent="WIyWlLk6GJQsqaUBKTNV-1">
          <mxGeometry x="-150" y="470" width="190" height="80" as="geometry" />
        </mxCell>
        <mxCell id="rVWwEnePYkKhTXY_iFtp-5" style="edgeStyle=orthogonalEdgeStyle;rounded=0;orthogonalLoop=1;jettySize=auto;html=1;exitX=0.5;exitY=1;exitDx=0;exitDy=0;entryX=0.5;entryY=0;entryDx=0;entryDy=0;" edge="1" parent="WIyWlLk6GJQsqaUBKTNV-1" source="rVWwEnePYkKhTXY_iFtp-3" target="rVWwEnePYkKhTXY_iFtp-7">
          <mxGeometry relative="1" as="geometry">
            <mxPoint x="340" y="590" as="targetPoint" />
          </mxGeometry>
        </mxCell>
        <mxCell id="rVWwEnePYkKhTXY_iFtp-3" value="Attach License" style="rhombus;whiteSpace=wrap;html=1;" vertex="1" parent="WIyWlLk6GJQsqaUBKTNV-1">
          <mxGeometry x="280" y="470" width="120" height="80" as="geometry" />
        </mxCell>
        <mxCell id="rVWwEnePYkKhTXY_iFtp-9" style="edgeStyle=orthogonalEdgeStyle;rounded=0;orthogonalLoop=1;jettySize=auto;html=1;exitX=0.5;exitY=1;exitDx=0;exitDy=0;" edge="1" parent="WIyWlLk6GJQsqaUBKTNV-1" source="rVWwEnePYkKhTXY_iFtp-7">
          <mxGeometry relative="1" as="geometry">
            <mxPoint x="340" y="700" as="targetPoint" />
          </mxGeometry>
        </mxCell>
        <mxCell id="rVWwEnePYkKhTXY_iFtp-7" value="Attach License page" style="rounded=1;whiteSpace=wrap;html=1;" vertex="1" parent="WIyWlLk6GJQsqaUBKTNV-1">
          <mxGeometry x="280" y="600" width="120" height="60" as="geometry" />
        </mxCell>
        <mxCell id="rVWwEnePYkKhTXY_iFtp-12" style="edgeStyle=orthogonalEdgeStyle;rounded=0;orthogonalLoop=1;jettySize=auto;html=1;" edge="1" parent="WIyWlLk6GJQsqaUBKTNV-1" source="rVWwEnePYkKhTXY_iFtp-10" target="rVWwEnePYkKhTXY_iFtp-11">
          <mxGeometry relative="1" as="geometry">
            <Array as="points">
              <mxPoint x="340" y="800" />
              <mxPoint x="230" y="800" />
            </Array>
          </mxGeometry>
        </mxCell>
        <mxCell id="rVWwEnePYkKhTXY_iFtp-14" style="edgeStyle=orthogonalEdgeStyle;rounded=0;orthogonalLoop=1;jettySize=auto;html=1;" edge="1" parent="WIyWlLk6GJQsqaUBKTNV-1" source="rVWwEnePYkKhTXY_iFtp-10" target="rVWwEnePYkKhTXY_iFtp-13">
          <mxGeometry relative="1" as="geometry" />
        </mxCell>
        <mxCell id="rVWwEnePYkKhTXY_iFtp-10" value="Attach License API" style="rhombus;whiteSpace=wrap;html=1;" vertex="1" parent="WIyWlLk6GJQsqaUBKTNV-1">
          <mxGeometry x="280" y="700" width="120" height="80" as="geometry" />
        </mxCell>
        <mxCell id="rVWwEnePYkKhTXY_iFtp-16" style="edgeStyle=orthogonalEdgeStyle;rounded=0;orthogonalLoop=1;jettySize=auto;html=1;exitX=0.5;exitY=1;exitDx=0;exitDy=0;" edge="1" parent="WIyWlLk6GJQsqaUBKTNV-1" source="rVWwEnePYkKhTXY_iFtp-11">
          <mxGeometry relative="1" as="geometry">
            <mxPoint x="230" y="1020" as="targetPoint" />
          </mxGeometry>
        </mxCell>
        <mxCell id="rVWwEnePYkKhTXY_iFtp-11" value="Valid License Code and device Id" style="rhombus;whiteSpace=wrap;html=1;" vertex="1" parent="WIyWlLk6GJQsqaUBKTNV-1">
          <mxGeometry x="170" y="830" width="120" height="90" as="geometry" />
        </mxCell>
        <mxCell id="rVWwEnePYkKhTXY_iFtp-18" style="edgeStyle=orthogonalEdgeStyle;rounded=0;orthogonalLoop=1;jettySize=auto;html=1;exitX=0.5;exitY=1;exitDx=0;exitDy=0;" edge="1" parent="WIyWlLk6GJQsqaUBKTNV-1" source="rVWwEnePYkKhTXY_iFtp-13">
          <mxGeometry relative="1" as="geometry">
            <mxPoint x="440" y="1010" as="targetPoint" />
          </mxGeometry>
        </mxCell>
        <mxCell id="rVWwEnePYkKhTXY_iFtp-13" value="Invalid License Code and device Id" style="rhombus;whiteSpace=wrap;html=1;" vertex="1" parent="WIyWlLk6GJQsqaUBKTNV-1">
          <mxGeometry x="380" y="820" width="120" height="100" as="geometry" />
        </mxCell>
        <mxCell id="rVWwEnePYkKhTXY_iFtp-20" style="edgeStyle=orthogonalEdgeStyle;rounded=0;orthogonalLoop=1;jettySize=auto;html=1;entryX=0.5;entryY=0;entryDx=0;entryDy=0;startArrow=none;" edge="1" parent="WIyWlLk6GJQsqaUBKTNV-1" source="rVWwEnePYkKhTXY_iFtp-19" target="WIyWlLk6GJQsqaUBKTNV-10">
          <mxGeometry relative="1" as="geometry">
            <mxPoint x="150" y="250" as="sourcePoint" />
          </mxGeometry>
        </mxCell>
        <mxCell id="rVWwEnePYkKhTXY_iFtp-19" value="React webview&lt;br&gt;(License Info and plans)" style="rounded=1;whiteSpace=wrap;html=1;" vertex="1" parent="WIyWlLk6GJQsqaUBKTNV-1">
          <mxGeometry x="90" y="210" width="120" height="60" as="geometry" />
        </mxCell>
        <mxCell id="rVWwEnePYkKhTXY_iFtp-25" style="edgeStyle=orthogonalEdgeStyle;rounded=0;orthogonalLoop=1;jettySize=auto;html=1;exitX=0.5;exitY=1;exitDx=0;exitDy=0;" edge="1" parent="WIyWlLk6GJQsqaUBKTNV-1" source="rVWwEnePYkKhTXY_iFtp-22">
          <mxGeometry relative="1" as="geometry">
            <mxPoint x="330" y="1160" as="targetPoint" />
          </mxGeometry>
        </mxCell>
        <mxCell id="rVWwEnePYkKhTXY_iFtp-22" value="Attach License Success Reload App" style="rounded=1;whiteSpace=wrap;html=1;" vertex="1" parent="WIyWlLk6GJQsqaUBKTNV-1">
          <mxGeometry x="170" y="1020" width="120" height="60" as="geometry" />
        </mxCell>
        <mxCell id="rVWwEnePYkKhTXY_iFtp-26" style="edgeStyle=orthogonalEdgeStyle;rounded=0;orthogonalLoop=1;jettySize=auto;html=1;exitX=0.5;exitY=1;exitDx=0;exitDy=0;" edge="1" parent="WIyWlLk6GJQsqaUBKTNV-1" source="rVWwEnePYkKhTXY_iFtp-23">
          <mxGeometry relative="1" as="geometry">
            <mxPoint x="330" y="1160" as="targetPoint" />
            <Array as="points">
              <mxPoint x="440" y="1120" />
              <mxPoint x="330" y="1120" />
            </Array>
          </mxGeometry>
        </mxCell>
        <mxCell id="rVWwEnePYkKhTXY_iFtp-23" value="Attach License Error" style="rounded=1;whiteSpace=wrap;html=1;" vertex="1" parent="WIyWlLk6GJQsqaUBKTNV-1">
          <mxGeometry x="380" y="1010" width="120" height="60" as="geometry" />
        </mxCell>
        <mxCell id="rVWwEnePYkKhTXY_iFtp-27" value="End" style="ellipse;whiteSpace=wrap;html=1;" vertex="1" parent="WIyWlLk6GJQsqaUBKTNV-1">
          <mxGeometry x="280" y="1160" width="110" height="80" as="geometry" />
        </mxCell>
        <mxCell id="rVWwEnePYkKhTXY_iFtp-31" style="edgeStyle=orthogonalEdgeStyle;rounded=0;orthogonalLoop=1;jettySize=auto;html=1;exitX=0.5;exitY=1;exitDx=0;exitDy=0;" edge="1" parent="WIyWlLk6GJQsqaUBKTNV-1" target="rVWwEnePYkKhTXY_iFtp-30">
          <mxGeometry relative="1" as="geometry">
            <mxPoint x="75" y="680" as="sourcePoint" />
            <Array as="points">
              <mxPoint x="75" y="710" />
              <mxPoint x="-65" y="710" />
            </Array>
          </mxGeometry>
        </mxCell>
        <mxCell id="rVWwEnePYkKhTXY_iFtp-38" style="edgeStyle=orthogonalEdgeStyle;rounded=0;orthogonalLoop=1;jettySize=auto;html=1;exitX=0;exitY=0.5;exitDx=0;exitDy=0;" edge="1" parent="WIyWlLk6GJQsqaUBKTNV-1" source="rVWwEnePYkKhTXY_iFtp-30">
          <mxGeometry relative="1" as="geometry">
            <mxPoint x="-195" y="840" as="targetPoint" />
          </mxGeometry>
        </mxCell>
        <mxCell id="rVWwEnePYkKhTXY_iFtp-40" style="edgeStyle=orthogonalEdgeStyle;rounded=0;orthogonalLoop=1;jettySize=auto;html=1;exitX=1;exitY=0.5;exitDx=0;exitDy=0;entryX=0.5;entryY=0;entryDx=0;entryDy=0;" edge="1" parent="WIyWlLk6GJQsqaUBKTNV-1" source="rVWwEnePYkKhTXY_iFtp-30" target="rVWwEnePYkKhTXY_iFtp-43">
          <mxGeometry relative="1" as="geometry">
            <mxPoint x="75" y="830" as="targetPoint" />
          </mxGeometry>
        </mxCell>
        <mxCell id="rVWwEnePYkKhTXY_iFtp-30" value="Initialize Payment" style="rhombus;whiteSpace=wrap;html=1;" vertex="1" parent="WIyWlLk6GJQsqaUBKTNV-1">
          <mxGeometry x="-160" y="740" width="190" height="80" as="geometry" />
        </mxCell>
        <mxCell id="rVWwEnePYkKhTXY_iFtp-32" value="Extend Checkout" style="rounded=1;whiteSpace=wrap;html=1;" vertex="1" parent="WIyWlLk6GJQsqaUBKTNV-1">
          <mxGeometry x="15" y="600" width="120" height="80" as="geometry" />
        </mxCell>
        <mxCell id="rVWwEnePYkKhTXY_iFtp-36" style="edgeStyle=orthogonalEdgeStyle;rounded=0;orthogonalLoop=1;jettySize=auto;html=1;exitX=0.5;exitY=1;exitDx=0;exitDy=0;" edge="1" parent="WIyWlLk6GJQsqaUBKTNV-1" source="rVWwEnePYkKhTXY_iFtp-35" target="rVWwEnePYkKhTXY_iFtp-30">
          <mxGeometry relative="1" as="geometry" />
        </mxCell>
        <mxCell id="rVWwEnePYkKhTXY_iFtp-35" value="Upgrade Existing Checkout with discount applied based on remaining days" style="rounded=1;whiteSpace=wrap;html=1;" vertex="1" parent="WIyWlLk6GJQsqaUBKTNV-1">
          <mxGeometry x="-280" y="600" width="120" height="80" as="geometry" />
        </mxCell>
        <mxCell id="rVWwEnePYkKhTXY_iFtp-56" style="edgeStyle=orthogonalEdgeStyle;rounded=0;orthogonalLoop=1;jettySize=auto;html=1;" edge="1" parent="WIyWlLk6GJQsqaUBKTNV-1" source="rVWwEnePYkKhTXY_iFtp-42" target="rVWwEnePYkKhTXY_iFtp-55">
          <mxGeometry relative="1" as="geometry" />
        </mxCell>
        <mxCell id="rVWwEnePYkKhTXY_iFtp-42" value="Payment Success Response/ Close window/ Reload App" style="rounded=1;whiteSpace=wrap;html=1;" vertex="1" parent="WIyWlLk6GJQsqaUBKTNV-1">
          <mxGeometry x="-250" y="840" width="120" height="60" as="geometry" />
        </mxCell>
        <mxCell id="rVWwEnePYkKhTXY_iFtp-45" style="edgeStyle=orthogonalEdgeStyle;rounded=0;orthogonalLoop=1;jettySize=auto;html=1;exitX=0.5;exitY=1;exitDx=0;exitDy=0;" edge="1" parent="WIyWlLk6GJQsqaUBKTNV-1" source="rVWwEnePYkKhTXY_iFtp-43">
          <mxGeometry relative="1" as="geometry">
            <mxPoint x="75" y="960" as="targetPoint" />
          </mxGeometry>
        </mxCell>
        <mxCell id="rVWwEnePYkKhTXY_iFtp-43" value="Payment failed" style="rounded=1;whiteSpace=wrap;html=1;" vertex="1" parent="WIyWlLk6GJQsqaUBKTNV-1">
          <mxGeometry x="15" y="840" width="120" height="60" as="geometry" />
        </mxCell>
        <mxCell id="rVWwEnePYkKhTXY_iFtp-50" style="edgeStyle=orthogonalEdgeStyle;rounded=0;orthogonalLoop=1;jettySize=auto;html=1;exitX=1;exitY=0.5;exitDx=0;exitDy=0;" edge="1" parent="WIyWlLk6GJQsqaUBKTNV-1" source="rVWwEnePYkKhTXY_iFtp-46" target="rVWwEnePYkKhTXY_iFtp-32">
          <mxGeometry relative="1" as="geometry">
            <mxPoint x="160" y="640" as="targetPoint" />
            <Array as="points">
              <mxPoint x="160" y="1000" />
              <mxPoint x="160" y="640" />
            </Array>
          </mxGeometry>
        </mxCell>
        <mxCell id="rVWwEnePYkKhTXY_iFtp-46" value="Retry Payment" style="rhombus;whiteSpace=wrap;html=1;" vertex="1" parent="WIyWlLk6GJQsqaUBKTNV-1">
          <mxGeometry x="35" y="960" width="80" height="80" as="geometry" />
        </mxCell>
        <mxCell id="rVWwEnePYkKhTXY_iFtp-60" style="edgeStyle=orthogonalEdgeStyle;rounded=0;orthogonalLoop=1;jettySize=auto;html=1;entryX=0;entryY=0.5;entryDx=0;entryDy=0;" edge="1" parent="WIyWlLk6GJQsqaUBKTNV-1" source="rVWwEnePYkKhTXY_iFtp-55" target="rVWwEnePYkKhTXY_iFtp-27">
          <mxGeometry relative="1" as="geometry">
            <Array as="points">
              <mxPoint y="1200" />
            </Array>
          </mxGeometry>
        </mxCell>
        <mxCell id="rVWwEnePYkKhTXY_iFtp-55" value="Payment Success Response/ Close window/ Reload App" style="rounded=1;whiteSpace=wrap;html=1;" vertex="1" parent="WIyWlLk6GJQsqaUBKTNV-1">
          <mxGeometry x="-60" y="1030" width="120" height="60" as="geometry" />
        </mxCell>
        <mxCell id="rVWwEnePYkKhTXY_iFtp-61" value="React webview&lt;br&gt;(Plans info)" style="rounded=1;whiteSpace=wrap;html=1;" vertex="1" parent="WIyWlLk6GJQsqaUBKTNV-1">
          <mxGeometry x="550" y="230" width="120" height="60" as="geometry" />
        </mxCell>
      </root>
    </mxGraphModel>
  </diagram>
</mxfile>
